<?xml version="1.0" encoding="UTF-8"?>
<svg width="188px" height="172px" viewBox="0 0 188 172" version="1.1" xmlns="http://www.w3.org/2000/svg" xmlns:xlink="http://www.w3.org/1999/xlink">
    <!-- Generator: Sketch 46.2 (44496) - http://www.bohemiancoding.com/sketch -->
    <title>无违规空页面</title>
    <desc>Created with Sketch.</desc>
    <defs></defs>
    <g id="Page-1" stroke="none" stroke-width="1" fill="none" fill-rule="evenodd">
        <g id="违规商品无内容" transform="translate(-280.000000, -554.000000)">
            <g id="Group-2" transform="translate(275.000000, 548.000000)">
                <g id="Group">
                    <g id="空icon" transform="translate(0.002856, 0.763494)">
                        <g id="Group-3">
                            <path d="M54.8397188,78.4450421 L49.0307298,135.641241 C48.3652166,142.193987 53.1344491,147.473011 59.7204683,147.473011 L141.704621,147.473011 C148.287701,147.473011 153.059753,142.192806 152.39436,135.641241 L146.585371,78.4450421 C145.911879,71.8137369 139.930693,66.4111868 133.261559,66.4111868 L68.1635308,66.4111868 C61.4926125,66.4111868 55.5133576,71.8122916 54.8397188,78.4450421 Z" id="Rectangle-4" stroke="#999999" stroke-width="2" transform="translate(100.712504, 106.942099) scale(-1, -1) translate(-100.712504, -106.942099) "></path>
                            <path d="M69.9679198,66.4494596 C71.9983336,51.210275 85.0471191,39.4543667 100.841644,39.4543667 C116.636169,39.4543667 129.684955,51.210275 131.715369,66.4494596 L129.618875,66.4494596 C127.603672,52.3609526 115.487404,41.5309123 100.841644,41.5309123 C86.1958846,41.5309123 74.0796165,52.3609526 72.0644135,66.4494596 L69.9679198,66.4494596 Z M69.6934599,67.4449992 C69.6934599,66.8951779 70.1338419,66.4494596 70.6952377,66.4494596 L70.7682279,66.4494596 C71.3214944,66.4494596 71.7700056,66.8955925 71.7700056,67.4449992 L71.7700056,75.8366481 C71.7700056,76.3864694 71.3296236,76.8321877 70.7682279,76.8321877 L70.6952377,76.8321877 C70.1419711,76.8321877 69.6934599,76.3860549 69.6934599,75.8366481 L69.6934599,67.4449992 Z M129.913283,67.4449992 C129.913283,66.8951779 130.353665,66.4494596 130.91506,66.4494596 L130.988051,66.4494596 C131.541317,66.4494596 131.989828,66.8955925 131.989828,67.4449992 L131.989828,75.8366481 C131.989828,76.3864694 131.549446,76.8321877 130.988051,76.8321877 L130.91506,76.8321877 C130.361794,76.8321877 129.913283,76.3860549 129.913283,75.8366481 L129.913283,67.4449992 Z" id="Combined-Shape" fill="#999999"></path>
                            <path d="M51.9136403,11.4210009 L46.1435309,11.4210009 C45.3108789,11.4210009 44.6457307,12.0922878 44.6457307,12.9203621 L44.6457307,14.0747309 C44.6457307,14.9068261 45.3163187,15.5740921 46.1435309,15.5740921 L51.9136403,15.5740921 L51.9136403,22.3813379 C51.9136403,23.2012203 52.5849272,23.8802746 53.4130016,23.8802746 L54.5673703,23.8802746 C55.3994656,23.8802746 56.0667316,23.2091778 56.0667316,22.3813379 L56.0667316,15.5740921 L61.836841,15.5740921 C62.669493,15.5740921 63.3346412,14.9028052 63.3346412,14.0747309 L63.3346412,12.9203621 C63.3346412,12.0882668 62.6640532,11.4210009 61.836841,11.4210009 L56.0667316,11.4210009 L56.0667316,5.65202784 C56.0667316,4.83214553 55.3954447,4.15309123 54.5673703,4.15309123 L53.4130016,4.15309123 C52.5809063,4.15309123 51.9136403,4.82418801 51.9136403,5.65202784 L51.9136403,11.4210009 Z" id="Combined-Shape" fill="#CBCBCB" transform="translate(53.990186, 14.016683) rotate(-44.000000) translate(-53.990186, -14.016683) "></path>
                            <path d="M183.724847,84.3077519 L177.747083,84.3077519 C176.914431,84.3077519 176.249283,84.9787705 176.249283,85.8065139 L176.249283,86.546772 C176.249283,87.3772935 176.919871,88.045534 177.747083,88.045534 L183.724847,88.045534 L183.724847,94.023298 C183.724847,94.85595 184.395866,95.5210982 185.223609,95.5210982 L185.963867,95.5210982 C186.794389,95.5210982 187.462629,94.8505102 187.462629,94.023298 L187.462629,88.045534 L193.440393,88.045534 C194.273045,88.045534 194.938194,87.3745154 194.938194,86.546772 L194.938194,85.8065139 C194.938194,84.9759924 194.267606,84.3077519 193.440393,84.3077519 L187.462629,84.3077519 L187.462629,78.3299879 C187.462629,77.4973359 186.791611,76.8321877 185.963867,76.8321877 L185.223609,76.8321877 C184.393088,76.8321877 183.724847,77.5027757 183.724847,78.3299879 L183.724847,84.3077519 Z" id="Combined-Shape" fill="#D8D8D8" transform="translate(185.593738, 86.176643) rotate(45.000000) translate(-185.593738, -86.176643) "></path>
                            <circle id="Oval-3" stroke="#D8D8D8" stroke-width="3" opacity="0.619565217" cx="171.840237" cy="32.7055934" r="6.74877324"></circle>
                            <circle id="Oval-3" stroke="#D8D8D8" stroke-width="3" opacity="0.373188406" cx="24.9185474" cy="94.4828254" r="4.15309123"></circle>
                            <path d="M9.45513693,54.1008676 L4.71880951,54.1008676 C3.89469935,54.1008676 3.22550008,54.7736344 3.22550008,55.6035342 L3.22550008,55.7130195 C3.22550008,56.5398168 3.89407749,57.215686 4.71880951,57.215686 L9.45513693,57.215686 L9.45513693,61.9520135 C9.45513693,62.7761236 10.1279037,63.4453229 10.9578035,63.4453229 L11.0672888,63.4453229 C11.8940861,63.4453229 12.5699553,62.7767455 12.5699553,61.9520135 L12.5699553,57.215686 L17.3062828,57.215686 C18.1303929,57.215686 18.7995922,56.5429193 18.7995922,55.7130195 L18.7995922,55.6035342 C18.7995922,54.7767368 18.1310148,54.1008676 17.3062828,54.1008676 L12.5699553,54.1008676 L12.5699553,49.3645402 C12.5699553,48.54043 11.8971886,47.8712308 11.0672888,47.8712308 L10.9578035,47.8712308 C10.1310061,47.8712308 9.45513693,48.5398082 9.45513693,49.3645402 L9.45513693,54.1008676 Z" id="Combined-Shape" fill="#D8D8D8" opacity="0.74388587" transform="translate(11.012546, 55.658277) rotate(45.000000) translate(-11.012546, -55.658277) "></path>
                            <circle id="Oval-4" fill="#D8D8D8" cx="80.9852789" cy="100.975644" r="6.22963684"></circle>
                            <circle id="Oval-4" fill="#D8D8D8" cx="120.439646" cy="100.975644" r="6.22963684"></circle>
                            <path d="M92.4021951,120.626281 C89.5373399,120.626281 88.2393356,118.550136 89.8290436,116.147736 C89.8290436,116.147736 91.2143405,110.243553 100.708126,110.243553 C110.201911,110.243553 111.610243,116.177887 111.610243,116.177887 C113.041264,118.634667 111.877132,120.626281 109.014056,120.626281 L92.4021951,120.626281 Z" id="Combined-Shape" fill="#D8D8D8" transform="translate(100.677037, 115.434917) rotate(-180.000000) translate(-100.677037, -115.434917) "></path>
                            <ellipse id="Oval-5" fill="#D8D8D8" opacity="0.453634511" cx="100.906235" cy="170.600142" rx="39.0909091" ry="5.90909091"></ellipse>
                        </g>
                    </g>
                </g>
            </g>
        </g>
    </g>
</svg>
